# AST/ASF file generated using VICON BodyLanguage
# -----------------------------------------------
:version 1.10
:name VICON
:units
  mass 1.0
  length 0.45
  angle deg
:documentation
   .ast/.asf automatically generated from VICON data using
   VICON BodyBuilder and BodyLanguage model FoxedUp or BRILLIANT.MOD
:root
   order TX TY TZ RX RY RZ
   axis XYZ
   position 0 0 0  
   orientation 0 -0 0 
:bonedata
  begin
     id 1 
     name lhipjoint
     direction 0.515797 -0.759363 0.396637 
     length 2.47888 
     axis 0 -0 0  XYZ
  end
  begin
     id 2 
     name lfemur
     direction 0.34202 -0.939693 0  
     length 6.81885  
     axis 0 -0 20  XYZ
    dof rx ry rz
    limits (-160.0 20.0)
           (-70.0 70.0)
           (-60.0 70.0)
  end
  begin
     id 3 
     name ltibia
     direction 0.342037 -0.939687 0   
     length 7.89258   
     axis 0 -0 20   XYZ
    dof rx
    limits (-10.0 170.0)
  end
  begin
     id 4 
     name lfoot
     direction 0.173497 -0.476678 0.861787   
     length 2.51543   
     axis -90 -1.13533e-015 20   XYZ
    dof rx rz
    limits (-45.0 90.0)
           (-70.0 20.0)
  end
  begin
     id 5 
     name ltoes
     direction 1.53564e-011 -4.21897e-011 1   
     length 1.21388   
     axis -90 -1.13533e-015 20   XYZ
    dof rx
    limits (-90.0 20.0)
  end
  begin
     id 6 
     name rhipjoint
     direction -0.489454 -0.772941 0.403729   
     length 2.43534  
     axis 0 -0 0  XYZ 
  end
  begin
     id 7 
     name rfemur
     direction -0.34202 -0.939693 0   
     length 7.10357   
     axis 0 -0 -20   XYZ
    dof rx ry rz
    limits (-160.0 20.0)
           (-70.0 70.0)
           (-70.0 60.0)
  end
  begin
     id 8 
     name rtibia
     direction -0.34202 -0.939693 0   
     length 9.16127   
     axis 0 -0 -20   XYZ
    dof rx
    limits (-10.0 170.0)
 end
 begin
     id 9 
     name rfoot
     direction -0.270974 -0.748671 0.605033   
     length 1.74894  
     axis -90 1.13533e-015 -20   XYZ
    dof rx rz
    limits (-45.0 90.0)
           (-20.0 70.0)
  end
  begin
     id 10 
     name rtoes
     direction -1.53557e-011 -4.21759e-011 1   
     length 0.787585   
     axis -90 1.13533e-015 -20   XYZ
    dof rx
    limits (-90.0 20.0)
  end
  begin
     id 11 
     name lowerback
     direction -0.0140249 0.999561 0.0260968   
     length 2.16963   
     axis 0 -0 0   XYZ
    dof rx ry rz
    limits (-20.0 45.0)
           (-30.0 30.0)
           (-30.0 30.0)
  end
  begin
     id 12 
     name upperback
     direction 0.00860018 0.999959 -0.002711   
     length 2.1726   
     axis 0 -0 0   XYZ
    dof rx ry rz
    limits (-20.0 45.0)
           (-30.0 30.0)
           (-30.0 30.0)
  end
  begin
     id 13 
     name thorax
     direction 0.015211 0.999782 -0.0143191   
     length 2.17061   
     axis 0 -0 0   XYZ
    dof rx ry rz
    limits (-20.0 45.0)
           (-30.0 30.0)
           (-30.0 30.0)
  end
  begin
     id 14 
     name lowerneck
     direction -0.0140143 0.999447 0.030145   
     length 2.26749   
     axis 0 -0 0   XYZ
    dof rx ry rz
    limits (-20.0 45.0)
           (-30.0 30.0)
           (-30.0 30.0)
  end
  begin
     id 15 
     name upperneck
     direction 0.118062 0.961438 -0.248392   
     length 2.22728   
     axis 0 -0 0   XYZ
    dof rx ry rz
    limits (-20.0 45.0)
           (-30.0 30.0)
           (-30.0 30.0)
  end
  begin
     id 16
     name head
     direction 0.0431885 0.9954 -0.085514  
     length 2.28786  
     axis 0 -0 0   XYZ
    dof rx ry rz
    limits (-20.0 45.0)
           (-30.0 30.0)
           (-30.0 30.0)
  end
  begin
     id 17 
     name lclavicle
     direction 0.912126 0.409548 0.0172323  
     length 4.31571  
     axis 0 -0 0   XYZ
    dof ry rz
    limits (-20.0 10.0)
           (0.0 20.0)
  end
  begin
     id 18 
     name lhumerus
     direction 1 -4.48977e-011 1.93091e-027   
     length 5.13658   
     axis 180 -30 -90   XYZ
    dof rx ry rz
    limits (-60.0 90.0)
           (-90.0 90.0)
           (-90.0 90.0)
  end
  begin
     id 19
     name lradius
     direction 1 -4.48916e-011 6.84018e-027   
     length 3.22473   
     axis 180 -30 -90   XYZ
    dof rx
    limits (-10.0 170.0)
  end
  begin
     id 20
     name lwrist
     direction 1 -4.48987e-011 7.01981e-027   
     length 1.61236   
     axis -4.37994e-015 90 90   XYZ
    dof ry
    limits (-180.0 0.0)
 end
  begin
     id 21 
     name lhand
     direction 1 -4.49037e-011 1.40335e-026   
     length 0.936406   
     axis -8.96029e-015 90 90   XYZ
    dof rx rz
    limits (-90.0 90.0)
           (-45.0 45.0)
  end
  begin
     id 22 
     name lfingers
     direction 1 -4.48886e-011 2.8104e-026   
     length 0.754955   
     axis -1.79203e-014 90 90   XYZ
    dof rx
    limits (0.0 90.0)
  end
  begin
     id 23
     name lthumb
     direction 0.707107 -6.34937e-011 0.707107   
     length 1.08397   
     axis -90 45 -4.48555e-014   XYZ
    dof rx rz
    limits (-45.0 45.0)
           (-45.0 45.0)
  end
  begin
     id 24 
     name rclavicle
     direction -0.947962 0.317997 0.0156638   
     length 4.86918  
     axis 0 -0 0   XYZ 
    dof ry rz
    limits (-10.0 20.0)
           (-20.0 0.0)
  end
  begin
     id 25 
     name rhumerus
     direction -1 -4.48951e-011 2.80534e-018  
     length 5.60911   
     axis 180 30 90   XYZ
    dof rx ry rz
    limits (-90.0 60.0)
           (-90.0 90.0)
           (-90.0 90.0)
  end
  begin
     id 26 
     name rradius
     direction -1 -4.4898e-011 2.11315e-027   
     length 3.38704   
     axis 180 30 90   XYZ
    dof rx
    limits (-10.0 170.0)
  end
  begin
     id 27 
     name rwrist
     direction -1 -4.48933e-011 7.02314e-027   
     length 1.69352   
     axis -4.37994e-015 -90 -90   XYZ
    dof ry
    limits (-180.0 0.0)
  end
  begin
     id 28
     name rhand
     direction -1 -4.48937e-011 1.40458e-026   
     length 0.755878   
     axis -8.96029e-015 -90 -90   XYZ
    dof rx rz
    limits (-90.0 90.0)
           (-45.0 45.0)
  end
  begin
     id 29
     name rfingers
     direction -1 -4.4901e-011 2.80737e-026   
     length 0.609409   
     axis -1.79203e-014 -90 -90   XYZ
    dof rx
    limits (0.0 90.0)
  end
  begin
     id 30
     name rthumb
     direction -0.707107 -6.34968e-011 0.707107   
     length 0.874992   
     axis -90 -45 4.48555e-014   XYZ
    dof rx rz
    limits (-45.0 45.0)
           (-45.0 45.0)
  end
:hierarchy
  begin
    root lhipjoint rhipjoint lowerback
    lhipjoint lfemur
    lfemur ltibia
    ltibia lfoot
    lfoot ltoes
    rhipjoint rfemur
    rfemur rtibia
    rtibia rfoot
    rfoot rtoes
    lowerback upperback
    upperback thorax
    thorax lowerneck lclavicle rclavicle
    lowerneck upperneck
    upperneck head
    lclavicle lhumerus
    lhumerus lradius
    lradius lwrist
    lwrist lhand lthumb
    lhand lfingers
    rclavicle rhumerus
    rhumerus rradius
    rradius rwrist
    rwrist rhand rthumb
    rhand rfingers
  end

#!OML:ASF C:\ViconDB\ViconDB\414\Spring2016\041811\Spring2016.ASF
:FULLY-SPECIFIED
:DEGREES
35
root 13.3341 18.1108 12.3725 -177.061 -10.7168 -177.671
lowerback 1.21383 0.256593 -1.31028
upperback 0.814892 0.319626 0.270816
thorax 0.14494 0.14997 1.00801
lowerneck -14.8108 0.645535 -5.89466
upperneck 23.1846 -2.10165 13.3172
head 9.98314 -0.428061 5.40398
rclavicle -1.3741e-014 -1.98785e-015
rhumerus -45.4862 -7.04945 -82.2409
rradius 45.381
rwrist 34.4113
rhand -33.1064 -11.7261
rfingers 7.12502
rthumb -6.31689 -41.6119
lclavicle -1.3741e-014 -1.98785e-015
lhumerus -36.9946 -2.89395 80.821
lradius 32.5859
lwrist -29.7962
lhand -29.4662 15.2322
lfingers 7.12502
lthumb -2.8019 45.1935
rfemur 168.15 47.3538 -166.743
rtibia 30.162
rfoot -46.9599 -47.6514
rtoes 9.14409e-014
lfemur -10.6998 -3.72166 -9.79478
ltibia 27.6458
lfoot -22.4867 11.6564
ltoes 1.24688e-013
36
root 13.3542 18.1074 12.3699 -177.014 -10.9103 -177.767
lowerback 1.2754 0.249952 -1.3145
upperback 0.82029 0.309568 0.248368
thorax 0.116341 0.145001 0.987247
lowerneck -14.9204 0.653099 -5.90073
upperneck 23.2493 -2.07567 13.2765
head 10.0242 -0.41404 5.39862
rclavicle -2.20154e-014 -1.59028e-015
rhumerus -45.4076 -7.16258 -82.0071
rradius 44.8029
rwrist 34.775
rhand -33.0701 -12.1123
rfingers 7.12502
rthumb -6.2819 -41.9992
lclavicle -2.20154e-014 -1.59028e-015
lhumerus -36.891 -1.99737 80.4067
lradius 32.4746
lwrist -29.9065
lhand -29.7814 15.5756
lfingers 7.12502
lthumb -3.10637 45.5327
rfemur 168.13 48.4236 -166.703
rtibia 30.2795
rfoot -48.163 -47.7747
rtoes -2.8625e-014
lfemur -11.4237 -3.33097 -9.8096
ltibia 28.5273
lfoot -22.0057 10.8123
ltoes 2.55314e-014
37
root 13.3726 18.0969 12.3655 -176.908 -11.1938 -177.718
lowerback 1.21615 0.198494 -1.12409
upperback 0.814227 0.243959 0.225287
thorax 0.145926 0.112961 0.857841
lowerneck -15.0158 0.651226 -5.84509
upperneck 23.2766 -2.0814 13.2478
head 10.0532 -0.409695 5.38065
rclavicle -3.18055e-015 3.57812e-015
rhumerus -45.2354 -7.60203 -81.6691
rradius 44.099
rwrist 35.2406
rhand -32.8507 -11.7266
rfingers 7.12502
rthumb -6.07007 -41.6197
lclavicle -3.18055e-015 3.57812e-015
lhumerus -36.7936 -1.00078 79.951
lradius 32.2996
lwrist -29.7071
lhand -30.525 15.8002
lfingers 7.12502
lthumb -3.82449 45.7457
rfemur 168.179 49.5886 -166.464
rtibia 30.4116
rfoot -49.3544 -47.8995
rtoes 7.23576e-014
lfemur -12.2042 -3.06582 -9.66916
ltibia 29.4174
lfoot -21.6753 9.67935
ltoes -3.54334e-014
38
root 13.3862 18.0936 12.3664 -176.852 -11.3637 -177.872
lowerback 1.33015 0.181321 -1.13463
upperback 0.799813 0.219235 0.148831
thorax 0.0681456 0.101152 0.785393
lowerneck -15.1454 0.657945 -5.82848
upperneck 23.3539 -2.09652 13.2962
head 10.1087 -0.405792 5.39954
rclavicle 1.30204e-014 7.95139e-016
rhumerus -45.132 -7.96405 -81.3352
rradius 43.4602
rwrist 35.8864
rhand -32.8584 -12.4052
rfingers 7.12502
rthumb -6.07752 -42.298
lclavicle 1.30204e-014 7.95139e-016
lhumerus -36.7509 -0.0441987 79.5941
lradius 32.1759
lwrist -29.3757
lhand -31.1199 15.8818
lfingers 7.12502
lthumb -4.39887 45.8161
rfemur 168.171 50.3886 -166.528
rtibia 30.5001
rfoot -50.1832 -48.0648
rtoes 1.08139e-013
lfemur -12.8788 -2.87267 -9.78917
ltibia 30.2445
lfoot -21.2589 8.62579
ltoes -4.70126e-014
39
root 13.4003 18.0948 12.3666 -176.825 -11.5627 -177.975
lowerback 1.44913 0.189543 -1.10913
upperback 0.78786 0.228372 0.0526017
thorax -0.010459 0.106293 0.672105
lowerneck -15.2511 0.633484 -5.83319
upperneck 23.3837 -2.17206 13.4319
head 10.151 -0.424632 5.44433
rclavicle -5.91384e-015 7.95139e-016
rhumerus -45.011 -8.5866 -80.9637
rradius 42.7965
rwrist 36.2743
rhand -32.5917 -12.1813
rfingers 7.12502
rthumb -5.82002 -42.0813
lclavicle -5.91384e-015 7.95139e-016
lhumerus -36.7671 0.62883 79.2887
lradius 32.145
lwrist -29.3493
lhand -31.4484 16.4201
lfingers 7.12502
lthumb -4.71607 46.3476
rfemur 168.073 50.5096 -166.665
rtibia 30.5367
rfoot -50.1126 -48.0783
rtoes -1.19271e-014
lfemur -13.4524 -2.71857 -9.83466
ltibia 30.9454
lfoot -21.0607 7.23325
ltoes -2.74323e-014
40
root 13.4059 18.0985 12.3631 -176.846 -11.6549 -178.176
lowerback 1.57581 0.239351 -1.15162
upperback 0.795961 0.290917 -0.0969962
thorax -0.0738061 0.137428 0.541426
lowerneck -15.1811 0.606499 -5.52317
upperneck 23.2547 -2.22728 13.257
head 10.0955 -0.441914 5.31075
rclavicle -4.47266e-016 7.15625e-015
rhumerus -45.0034 -9.44105 -80.4668
rradius 42.2975
rwrist 36.8191
rhand -32.5182 -12.2579
rfingers 7.12502
rthumb -5.74902 -42.1599
lclavicle -4.47266e-016 7.15625e-015
lhumerus -36.7996 1.25945 79.1237
lradius 32.2066
lwrist -29.1912
lhand -31.5125 17.3699
lfingers 7.12502
lthumb -4.77797 47.296
rfemur 167.931 50.4312 -167.004
rtibia 30.4963
rfoot -49.908 -48.0885
rtoes -2.22639e-014
lfemur -13.827 -2.81018 -10.0428
ltibia 31.4269
lfoot -21.1861 5.68924
ltoes -1.02374e-014
